HIERARCHY
ROOT Hips
{
	OFFSET 0.000000 0.000000 0.000000
	CHANNELS 6 Xposition Yposition Zposition Zrotation Yrotation Xrotation 
	JOINT LHipJoint
	{
		OFFSET 0.000000 0.000000 0.000000
		CHANNELS 3 Zrotation Yrotation Xrotation
		JOINT LeftUpLeg
		{
			OFFSET 1.363060 -1.794630 0.839290
			CHANNELS 3 Zrotation Yrotation Xrotation
			JOINT LeftLeg
			{
				OFFSET 2.448110 -6.726130 0.000000
				CHANNELS 3 Zrotation Yrotation Xrotation
				JOINT LeftFoot
				{
					OFFSET 2.562200 -7.039590 0.000000
					CHANNELS 3 Zrotation Yrotation Xrotation
					JOINT LeftToeBase
					{
						OFFSET 0.157640 -0.433110 2.322550
						CHANNELS 3 Zrotation Yrotation Xrotation
						End Site
						{
							OFFSET 0.000000 0.000000 0.000000
						}
					}
				}
			}
		}
	}
	JOINT RHipJoint
	{
		OFFSET 0.000000 0.000000 0.000000
		CHANNELS 3 Zrotation Yrotation Xrotation
		JOINT RightUpLeg
		{
			OFFSET -1.305520 -1.794630 0.839290
			CHANNELS 3 Zrotation Yrotation Xrotation
			JOINT RightLeg
			{
				OFFSET -2.542530 -6.985550 0.000000
				CHANNELS 3 Zrotation Yrotation Xrotation
				JOINT RightFoot
				{
					OFFSET -2.568260 -7.056230 0.000000
					CHANNELS 3 Zrotation Yrotation Xrotation
					JOINT RightToeBase
					{
						OFFSET -0.164730 -0.452590 2.363150
						CHANNELS 3 Zrotation Yrotation Xrotation
						End Site
						{
							OFFSET 0.000000 0.000000 0.000000
						}
					}
				}
			}
		}
	}
	JOINT LowerBack
	{
		OFFSET 0.000000 0.000000 0.000000
		CHANNELS 3 Zrotation Yrotation Xrotation
		JOINT Spine
		{
			OFFSET 0.028270 2.035590 -0.193380
			CHANNELS 3 Zrotation Yrotation Xrotation
			JOINT Spine1
			{
				OFFSET 0.056720 2.048850 -0.042750
				CHANNELS 3 Zrotation Yrotation Xrotation
				JOINT Neck
				{
					OFFSET 0.000000 0.000000 0.000000
					CHANNELS 3 Zrotation Yrotation Xrotation
					JOINT Neck1
					{
						OFFSET -0.054170 1.746240 0.172020
						CHANNELS 3 Zrotation Yrotation Xrotation
						JOINT Head
						{
							OFFSET 0.104070 1.761360 -0.123970
							CHANNELS 3 Zrotation Yrotation Xrotation
							End Site
							{
								OFFSET 0.000000 0.000000 0.000000
							}
						}
					}
				}
				JOINT LeftShoulder
				{
					OFFSET 0.000000 0.000000 0.000000
					CHANNELS 3 Zrotation Yrotation Xrotation
					JOINT LeftArm
					{
						OFFSET 3.362410 1.200890 -0.311210
						CHANNELS 3 Zrotation Yrotation Xrotation
						JOINT LeftForeArm
						{
							OFFSET 4.983000 -0.000000 -0.000000
							CHANNELS 3 Zrotation Yrotation Xrotation
							JOINT LeftHand
							{
								OFFSET 3.483560 -0.000000 -0.000000
								CHANNELS 3 Zrotation Yrotation Xrotation
								JOINT LeftFingerBase
								{
									OFFSET 0.000000 0.000000 0.000000
									CHANNELS 3 Zrotation Yrotation Xrotation
									JOINT LeftHandIndex1
									{
										OFFSET 0.715260 -0.000000 -0.000000
										CHANNELS 3 Zrotation Yrotation Xrotation
										End Site
										{
											OFFSET 0.000000 0.000000 0.000000
										}
									}
								}
								JOINT LThumb
								{
									OFFSET 0.000000 0.000000 0.000000
									CHANNELS 3 Zrotation Yrotation Xrotation
									End Site
									{
										OFFSET 0.000000 0.000000 0.000000
									}
								}
							}
						}
					}
				}
				JOINT RightShoulder
				{
					OFFSET 0.000000 0.000000 0.000000
					CHANNELS 3 Zrotation Yrotation Xrotation
					JOINT RightArm
					{
						OFFSET -3.136600 1.374050 -0.404650
						CHANNELS 3 Zrotation Yrotation Xrotation
						JOINT RightForeArm
						{
							OFFSET -5.241900 -0.000000 -0.000000
							CHANNELS 3 Zrotation Yrotation Xrotation
							JOINT RightHand
							{
								OFFSET -3.444170 -0.000000 -0.000000
								CHANNELS 3 Zrotation Yrotation Xrotation
								JOINT RightFingerBase
								{
									OFFSET 0.000000 0.000000 0.000000
									CHANNELS 3 Zrotation Yrotation Xrotation
									JOINT RightHandIndex1
									{
										OFFSET -0.622530 -0.000000 -0.000000
										CHANNELS 3 Zrotation Yrotation Xrotation
										End Site
										{
											OFFSET 0.000000 0.000000 0.000000
										}
									}
								}
								JOINT RThumb
								{
									OFFSET 0.000000 0.000000 0.000000
									CHANNELS 3 Zrotation Yrotation Xrotation
									End Site
									{
										OFFSET 0.000000 0.000000 0.000000
									}
								}
							}
						}
					}
				}
			}
		}
	}
}
MOTION
Frames: 9
Frame Time: 0.008333
-0.623384 17.808256 10.551295 -5.264160 1.417481 8.359815 1.811315 1.006331 0.515188 -14.591456 -5.714763 -6.013987 0.348152 6.010923 17.314880 0.136732 2.108097 -10.472037 0.055400 1.518900 4.177800 -4.727844 -1.166423 -1.577646 31.286264 0.677018 -1.127615 -0.415823 -2.578099 7.839783 0.690794 -9.368770 -10.126056 -0.302700 -3.537700 9.779500 2.371355 -0.932186 -5.442657 1.659748 -1.776641 -3.190554 3.710219 -1.139490 0.468927 -0.820294 -1.078448 -13.891741 3.901094 -1.679531 14.891617 -0.134300 -0.478200 9.097200 1.355287 4.716021 -0.768847 -92.943221 4.570897 25.198016 14.707013 -24.126725 -2.653537 0.498522 0.223424 9.356428 -1.517784 45.708847 -1.407000 -7.125000 0.000000 0.000000 -55.935700 67.267400 -34.005900 -0.269213 -5.014959 -1.826392 86.725034 -2.096355 20.147194 -12.012067 21.657621 -2.189841 0.859675 0.624493 -12.521288 -16.077022 16.582707 -4.851200 7.125000 0.000000 0.000000 7.135500 -13.315700 5.342700 
-0.630363 17.814527 10.541787 -5.063877 1.346627 8.404716 1.813185 1.003651 0.511646 -14.798465 -5.610048 -6.121619 0.342197 5.997537 17.267733 0.123679 2.154066 -10.369604 0.057000 1.541000 4.238800 -4.724416 -1.164836 -1.570901 31.096901 0.783186 -1.260859 -0.424617 -2.614371 7.941767 0.682121 -9.352872 -10.267605 -0.343100 -3.763600 10.412700 2.046325 -0.955465 -5.422587 1.652531 -1.790279 -3.185642 3.872740 -1.144757 0.483241 -0.820994 -1.089141 -13.966129 3.875639 -1.687649 14.919834 -0.150700 -0.483000 9.126000 1.359379 4.718291 -0.767317 -92.981115 4.485088 25.379760 14.655019 -24.063573 -2.639477 0.502828 0.221610 8.553197 -0.064845 45.384004 -0.376500 -7.125000 0.000000 0.000000 -54.102900 67.544600 -32.943500 -0.270546 -5.014624 -1.831253 86.690884 -2.181799 20.029521 -12.152906 21.924045 -2.277708 0.841508 0.613780 -11.990131 -15.601480 16.126604 -4.573400 7.125000 0.000000 0.000000 7.459300 -13.828400 5.508100 
-0.631678 17.815538 10.530357 -5.193043 1.197701 8.380985 1.816186 1.003805 0.502069 -14.671868 -5.543145 -6.154731 0.340745 5.998836 17.268564 0.093044 2.316666 -10.270417 0.057600 1.549100 4.261100 -4.734410 -1.164361 -1.567776 31.240537 0.963695 -1.274621 -0.425821 -2.635167 7.993440 0.688003 -9.390718 -10.239238 -0.351900 -3.811100 10.545800 2.130770 -0.930555 -5.338572 1.675109 -1.761611 -3.132169 3.909684 -1.136536 0.587353 -0.943323 -1.064619 -14.133392 4.006913 -1.634865 14.881226 -0.067900 -0.456300 9.147000 1.354765 4.726171 -0.765527 -92.961662 4.245995 25.593723 14.604607 -23.992345 -2.616845 0.503665 0.223278 8.328624 0.051714 45.476691 -0.295700 -7.125000 0.000000 0.000000 -54.187600 67.636100 -33.109400 -0.268428 -5.014727 -1.822555 86.723534 -2.004547 20.077211 -12.151828 21.928692 -2.299248 0.804443 0.638587 -12.295034 -15.547341 15.224906 -4.287500 7.125000 0.000000 0.000000 7.497200 -14.783400 5.383000 
-0.636229 17.816348 10.525198 -5.138898 1.205539 8.397198 1.818358 1.003044 0.499323 -14.709803 -5.593804 -6.188936 0.340931 6.000830 17.269682 0.083795 2.343964 -10.179950 0.053900 1.498100 4.120400 -4.734457 -1.164336 -1.566386 31.202825 0.977013 -1.340053 -0.429484 -2.654278 8.045622 0.686430 -9.389122 -10.264992 -0.358300 -3.845400 10.642000 2.031324 -0.937294 -5.361613 1.671938 -1.766379 -3.122724 3.964447 -1.139412 0.616362 -1.128141 -1.100408 -14.039772 4.182712 -1.658491 14.841943 0.035700 -0.464600 9.107900 1.350515 4.733529 -0.764676 -92.854724 4.286297 25.624605 14.870709 -24.376881 -2.715945 0.488391 0.237970 8.968710 -2.860774 46.337391 -2.381500 -7.125000 0.000000 0.000000 -58.243400 67.187800 -35.680800 -0.279491 -5.006588 -1.817633 86.693958 -1.986644 20.024439 -12.143469 21.900892 -2.259899 0.851625 0.620165 -12.133634 -15.871361 16.353206 -4.719500 7.125000 0.000000 0.000000 7.275000 -13.574000 5.409100 
-0.637241 17.817663 10.518522 -5.099646 1.115101 8.382615 1.824979 1.000301 0.489653 -14.767510 -5.572626 -6.192377 0.342281 6.007314 17.285086 0.067955 2.415598 -10.093411 0.051700 1.467800 4.036900 -4.733575 -1.160016 -1.573547 31.152663 1.049758 -1.311805 -0.429293 -2.647128 8.024833 0.690301 -9.413612 -10.237767 -0.360700 -3.858100 10.677900 1.987094 -0.951428 -5.441830 1.646520 -1.782972 -3.055539 3.910356 -1.155809 0.833661 -1.139833 -1.082069 -13.999009 4.295494 -1.646947 14.755615 0.082800 -0.450600 9.051700 1.342996 4.748601 -0.754614 -92.833313 4.051705 25.279794 14.745114 -24.203079 -2.664002 0.493535 0.233735 9.443851 -2.931916 46.099616 -2.425300 -7.125000 0.000000 0.000000 -57.836200 67.033300 -35.182700 -0.283878 -5.020080 -1.801187 86.804471 -1.802839 20.030703 -12.092789 21.831962 -2.237617 0.863384 0.609099 -12.004073 -15.747579 16.611318 -4.762400 7.125000 0.000000 0.000000 7.359500 -13.309800 5.514200 
-0.641085 17.818269 10.504665 -5.178609 0.993520 8.425328 1.830451 1.000459 0.480203 -14.666608 -5.546523 -6.275572 0.338981 5.998156 17.253159 0.044153 2.513155 -9.930995 0.050000 1.443400 3.969600 -4.741781 -1.161241 -1.563213 31.271119 1.249361 -1.431878 -0.435209 -2.689944 8.135307 0.692095 -9.428865 -10.225626 -0.361800 -3.864100 10.694600 2.027999 -0.918595 -5.337996 1.651254 -1.736959 -3.021046 3.917014 -1.136534 0.875083 -1.177082 -1.122635 -14.181581 4.320743 -1.691038 14.788293 0.096700 -0.470300 9.108600 1.340532 4.749492 -0.757323 -92.736135 3.922361 25.513916 14.883761 -24.405988 -2.717502 0.489578 0.239158 9.245145 -3.371645 46.450619 -2.754200 -7.125000 0.000000 0.000000 -58.870500 67.084300 -36.044800 -0.287182 -5.014841 -1.801471 86.779558 -1.670480 20.415905 -12.189149 22.005607 -2.298700 0.836745 0.627347 -12.564905 -15.614392 16.075796 -4.562000 7.125000 0.000000 0.000000 7.447700 -13.884100 5.490400 
-0.641186 17.818067 10.509419 -5.160344 1.014523 8.423839 1.833209 1.000098 0.476216 -14.692740 -5.543006 -6.228445 0.336828 5.987481 17.223575 0.036533 2.530101 -9.837859 0.046700 1.395300 3.837300 -4.739792 -1.161503 -1.566526 31.236445 1.230046 -1.447672 -0.439154 -2.713375 8.200467 0.688195 -9.410573 -10.257535 -0.349500 -3.798400 10.510200 2.060234 -0.925694 -5.441938 1.640292 -1.751777 -2.994411 3.861963 -1.147046 0.993056 -1.208483 -1.176583 -14.100806 4.263253 -1.751360 14.816754 0.077300 -0.506100 9.093500 1.336718 4.758549 -0.751883 -92.688576 4.006170 25.678863 14.971843 -24.545158 -2.760824 0.494214 0.235586 9.175026 -2.783766 46.149625 -2.322300 -7.125000 0.000000 0.000000 -57.814700 67.107400 -35.254100 -0.289935 -5.024556 -1.791997 86.813723 -1.620132 20.293252 -12.122404 21.900539 -2.272173 0.834701 0.628803 -12.458389 -15.624467 15.964688 -4.531700 7.125000 0.000000 0.000000 7.440000 -14.000600 5.466200 
-0.643512 17.818168 10.499304 -5.114177 0.941517 8.409211 1.838539 0.999728 0.471715 -14.745534 -5.561960 -6.237279 0.337973 5.997110 17.247786 0.017459 2.630835 -9.769891 0.043600 1.347100 3.704400 -4.739401 -1.159370 -1.566063 31.189791 1.308967 -1.475886 -0.443195 -2.729721 8.245005 0.691118 -9.425207 -10.214098 -0.338300 -3.737400 10.339100 1.991850 -0.960686 -5.315426 1.626331 -1.784457 -2.970276 3.845389 -1.165038 0.996992 -1.058545 -1.152768 -14.127665 4.139120 -1.742583 14.842590 -0.002400 -0.502000 9.109800 1.339746 4.751368 -0.751232 -92.631676 3.800397 25.575829 14.958892 -24.525604 -2.749794 0.494101 0.236958 9.073751 -2.704506 46.427625 -2.276200 -7.125000 0.000000 0.000000 -58.298300 67.284700 -35.838500 -0.287576 -5.027609 -1.791930 86.816866 -1.540534 20.598399 -12.175207 21.995457 -2.306540 0.820267 0.636843 -12.522826 -15.586033 15.626867 -4.419000 7.125000 0.000000 0.000000 7.466900 -14.359800 5.428900 
-0.647154 17.818067 10.495865 -5.101095 0.923285 8.392887 1.839539 1.000639 0.471163 -14.747950 -5.541348 -6.229895 0.337958 5.995926 17.244261 0.015001 2.638158 -9.743508 0.037200 1.245400 3.424200 -4.739361 -1.158004 -1.567522 31.195401 1.317568 -1.458973 -0.443570 -2.731873 8.251489 0.690657 -9.418420 -10.203731 -0.333800 -3.713200 10.271200 1.960231 -0.970594 -5.203140 1.625962 -1.789249 -2.961427 3.866924 -1.168247 0.968512 -1.048091 -1.180014 -14.194378 4.099243 -1.775447 14.908778 -0.023000 -0.518300 9.154000 1.339639 4.749592 -0.753229 -92.586924 3.932347 25.725329 15.087979 -24.720308 -2.811166 0.497409 0.233426 8.890486 -1.864361 46.175076 -1.666800 -7.125000 0.000000 0.000000 -57.126700 67.416000 -35.087400 -0.284723 -5.023793 -1.790417 86.838117 -1.444195 20.451762 -12.141373 21.933764 -2.293600 0.815856 0.637168 -12.311893 -15.592820 15.464263 -4.371800 7.125000 0.000000 0.000000 7.463200 -14.530500 5.398800 
